<?xml version="1.0" encoding="iso-8859-1"?>
<!-- Generator: Adobe Illustrator 19.0.0, SVG Export Plug-In . SVG Version: 6.00 Build 0)  -->
<svg version="1.1" id="Layer_1" xmlns="http://www.w3.org/2000/svg" xmlns:xlink="http://www.w3.org/1999/xlink" x="0px" y="0px"
	 viewBox="0 0 512 512" style="enable-background:new 0 0 512 512;" xml:space="preserve">
<path style="fill:#4CB0D8;" d="M132.046,366.693c-17.594-5.668-36.212-8.696-55.336-8.696c-10.067,0-20.276,0.851-30.531,2.581
	c16.743,98.948,110.542,165.589,209.49,148.846"/>
<path style="fill:#53BEF4;" d="M255.665,509.429c-22.481-7.215-42.58-18.404-59.77-32.548
	c-33.933-27.875-56.552-67.226-63.859-110.195c-4.73-27.806-3.023-57.136,6.196-85.847c17.282,5.554,33.166,13.457,47.401,23.237
	c6.654,4.57,12.941,9.563,18.851,14.911L255.665,509.429z"/>
<path style="fill:#4CB0D8;" d="M379.955,366.693c17.594-5.668,36.212-8.696,55.336-8.696c10.067,0,20.276,0.851,30.531,2.581
	c-16.743,98.948-110.542,165.589-209.49,148.846"/>
<path style="fill:#53BEF4;" d="M379.958,366.686c-7.295,42.958-29.914,82.297-63.824,110.172
	c-17.201,14.144-37.3,25.344-59.793,32.571l51.181-190.442c5.909-5.348,12.197-10.341,18.839-14.911
	c14.235-9.78,30.12-17.683,47.413-23.237C382.993,309.55,384.699,338.88,379.958,366.686z"/>
<g>
	<path style="fill:#4CB0D8;" d="M204.484,318.987l51.181,190.442c-22.481-7.215-42.58-18.404-59.77-32.548
		c-32.33-52.441-35.743-117.65-10.261-172.805C192.288,308.646,198.575,313.639,204.484,318.987z"/>
	<path style="fill:#4CB0D8;" d="M316.134,476.858c-17.201,14.144-37.3,25.344-59.793,32.571l51.181-190.442
		c5.909-5.348,12.197-10.341,18.839-14.911C351.842,359.219,348.43,424.418,316.134,476.858z"/>
</g>
<g>
	<path style="fill:#F4C653;" d="M367.216,96.032l-0.129-0.215c-8.146-13.407-22.364-21.88-38.032-22.664
		c-15.678-0.782-30.66,6.227-40.105,18.753l-21.628,28.686c-7.804,10.35-19.992,16.704-32.895,17.263
		c-3.61-1.586-7.439-2.771-11.44-3.514l17.882-14.764c7.927-6.544,12.713-15.793,13.476-26.043c0.764-10.251-2.6-20.107-9.47-27.753
		c-6.925-7.706-16.442-12.103-26.799-12.38c-10.379-0.262-20.097,3.605-27.424,10.932l-27.995,27.995
		c-3.354,3.354-3.354,8.793,0,12.146c3.356,3.354,8.793,3.354,12.148,0l27.993-27.994c3.959-3.959,9.233-6.056,14.817-5.907
		c5.597,0.149,10.739,2.525,14.48,6.688c3.713,4.131,5.529,9.456,5.118,14.995c-0.412,5.538-2.998,10.536-7.28,14.072
		l-32.827,27.102c-2.624,2.166-3.722,5.675-2.8,8.949c0.921,3.274,3.687,5.698,7.054,6.179l16.994,2.428
		c3.59,0.513,6.987,1.556,10.119,3.061c0.013,0.007,0.025,0.013,0.038,0.019c6.623,3.192,12.048,8.47,15.519,15.312
		c5.118,10.09,5,21.6-0.323,31.583c-5.109,9.578-13.656,16.546-24.067,19.621c-10.409,3.075-21.371,1.869-30.864-3.398
		c-25.463-14.124-40.888-40.985-40.255-70.097l0.164-7.496c0.104-4.744-3.657-8.672-8.4-8.775c-0.064-0.001-0.126-0.002-0.19-0.002
		c-4.657,0-8.482,3.723-8.584,8.403l-0.164,7.496c-0.772,35.506,18.041,68.264,49.095,85.492c8.641,4.793,18.131,7.23,27.73,7.23
		c5.456,0,10.948-0.788,16.335-2.379c14.864-4.39,27.065-14.338,34.358-28.013c7.996-14.993,8.175-32.283,0.487-47.438
		c-1.848-3.644-4.068-6.993-6.603-10.014c11.127-3.942,21.061-11.07,28.291-20.659l21.627-28.687
		c6.102-8.092,15.402-12.445,25.53-11.938c10.123,0.506,18.947,5.765,24.201,14.411l0.129,0.215
		c17.313,28.495,13.694,65.584-8.802,90.194c-6.315,6.908-15.292,10.441-24.617,9.692c-9.329-0.749-17.624-5.669-22.755-13.497
		l-11.099-16.93c-2.601-3.968-7.928-5.073-11.893-2.475c-3.967,2.601-5.075,7.925-2.474,11.892l11.099,16.93
		c8.061,12.296,21.09,20.025,35.746,21.202c1.295,0.104,2.584,0.156,3.867,0.156c13.246,0,25.761-5.487,34.806-15.381
		c13.635-14.918,21.881-33.436,23.844-53.553C382.211,133.05,377.702,113.287,367.216,96.032z"/>
	<path style="fill:#F4C653;" d="M237.35,43.206c9.183,10.596,21.954,16.762,35.962,17.364c0.749,0.032,1.496,0.048,2.24,0.048
		c13.176,0,25.561-5.018,35.08-14.266l13.773-13.38c3.404-3.305,3.482-8.743,0.176-12.145c-3.305-3.401-8.743-3.48-12.145-0.175
		l-13.773,13.38c-6.634,6.443-15.387,9.769-24.613,9.377c-9.239-0.396-17.662-4.463-23.717-11.451L237.05,16.632
		c-3.108-3.586-8.532-3.972-12.117-0.865c-3.585,3.106-3.973,8.531-0.866,12.117L237.35,43.206z"/>
	<path style="fill:#F4C653;" d="M274.491,27.591c7.608,0,13.796-6.189,13.796-13.796S282.097,0,274.491,0
		s-13.797,6.189-13.797,13.796S266.883,27.591,274.491,27.591z M274.491,10.413c1.864,0,3.382,1.517,3.382,3.383
		s-1.517,3.383-3.382,3.383c-1.866,0-3.383-1.517-3.383-3.383S272.625,10.413,274.491,10.413z"/>
</g>
<path style="fill:#53BEF4;" d="M282.464,482.962L256.226,509.2l-0.218,0.218l-26.455-26.455c-56.357-56.346-56.357-147.713,0-204.07
	l26.455-26.455l26.455,26.455C338.81,335.249,338.81,426.617,282.464,482.962z"/>
<g>
</g>
<g>
</g>
<g>
</g>
<g>
</g>
<g>
</g>
<g>
</g>
<g>
</g>
<g>
</g>
<g>
</g>
<g>
</g>
<g>
</g>
<g>
</g>
<g>
</g>
<g>
</g>
<g>
</g>
</svg>
