<?xml version="1.0" encoding="iso-8859-1"?>
<!-- Generator: Adobe Illustrator 19.0.0, SVG Export Plug-In . SVG Version: 6.00 Build 0)  -->
<svg version="1.1" id="Layer_1" xmlns="http://www.w3.org/2000/svg" xmlns:xlink="http://www.w3.org/1999/xlink" x="0px" y="0px"
	 viewBox="0 0 504.8 504.8" style="enable-background:new 0 0 504.8 504.8;" xml:space="preserve">
<polygon style="fill:#33A5D2;" points="232,384.418 4,384.418 4,124.418 232,124.418 232,39.618 500.4,252.418 232,465.218 "/>
<polygon style="fill:#ACD9EA;" points="24,364.418 24,144.418 252,144.418 252,86.818 462.8,252.418 252,418.018 252,364.418 "/>
<path d="M232,469.218c-0.4,0-1.2,0-1.6-0.4c-1.2-0.8-2.4-2-2.4-3.6v-76.8H4c-2.4,0-4-1.6-4-4v-260c0-2.4,1.6-4,4-4h224v-80.8
	c0-1.6,0.8-2.8,2.4-3.6c1.2-0.8,3.2-0.4,4.4,0.4l268.4,212.8c0.8,0.8,1.6,2,1.6,3.2s-0.4,2.4-1.6,3.2l-268.4,212.8
	C233.6,468.818,232.8,469.218,232,469.218z M8,380.418h224c2.4,0,4,1.6,4,4v72.4l258-204.4l-258-204.4v76.4c0,2.4-1.6,4-4,4H8
	V380.418z"/>
<path d="M252,368.418H24c-2.4,0-4-1.6-4-4v-220c0-2.4,1.6-4,4-4h228c2.4,0,4,1.6,4,4s-1.6,4-4,4H28v212h224c2.4,0,4,1.6,4,4
	S254.4,368.418,252,368.418z"/>
<path d="M252,422.018c-1.2,0-2.4-0.4-3.2-1.6c-1.2-1.6-1.2-4.4,0.8-5.6l166.4-130.4c1.6-1.2,4.4-1.2,5.6,0.8
	c1.2,1.6,1.2,4.4-0.8,5.6l-166.4,130.4C254,422.018,253.2,422.018,252,422.018z"/>
<path d="M450.8,266.018c-1.2,0-2.4-0.4-3.2-1.6c-1.2-1.6-1.2-4.4,0.8-5.6l8-6.4l-206.8-162.8c-1.6-1.2-2-4-0.8-5.6s4-2,5.6-0.8
	l210.8,165.6c0.8,0.8,1.6,2,1.6,3.2s-0.4,2.4-1.6,3.2l-12,9.6C452.8,265.618,451.6,266.018,450.8,266.018z"/>
<path d="M252,148.418c-2.4,0-4-1.6-4-4v-57.6c0-2.4,1.6-4,4-4s4,1.6,4,4v57.6C256,146.818,254.4,148.418,252,148.418z"/>
<path d="M252,422.018c-2.4,0-4-1.6-4-4v-53.6c0-2.4,1.6-4,4-4s4,1.6,4,4v53.6C256,420.418,254.4,422.018,252,422.018z"/>
<g>
</g>
<g>
</g>
<g>
</g>
<g>
</g>
<g>
</g>
<g>
</g>
<g>
</g>
<g>
</g>
<g>
</g>
<g>
</g>
<g>
</g>
<g>
</g>
<g>
</g>
<g>
</g>
<g>
</g>
</svg>
